<svg id="Layer_1" data-name="Layer 1" xmlns="http://www.w3.org/2000/svg" viewBox="0 0 571.94 140.53"><defs><style>.cls-1{fill:#2ed573;}.cls-2,.cls-3{fill:#69c;}.cls-3{font-size:71.49px;font-family:MinionPro-Regular, Minion Pro;}.cls-4{letter-spacing:-0.03em;}.cls-5{letter-spacing:0em;}.cls-6{letter-spacing:-0.01em;}.cls-7{letter-spacing:-0.03em;}.cls-8{letter-spacing:-0.01em;}.cls-9{letter-spacing:0.02em;}.cls-10{letter-spacing:0em;}</style></defs><title>Untitled-final</title><path class="cls-1" d="M14.26,52.42c1.52,14.24,7.51,52.53,38,87.47a158.61,158.61,0,0,0,68.46,45.64A73.21,73.21,0,0,1,174,50.52c-5.56-2-38-13.29-72.26,3.8C72.19,69.05,60.72,95.15,58,101.86A95.65,95.65,0,0,1,35.18,84.75,96.22,96.22,0,0,1,14.26,52.42Z" transform="translate(-14.26 -45)"/><circle class="cls-1" cx="36.13" cy="24.53" r="14.26"/><path class="cls-1" d="M98.88,85.7c25.5-34.64,74.06-38.14,100.79-13.31,22.78,21.16,26.79,60.18,5.7,89.38A66.56,66.56,0,0,0,98.88,85.7Z" transform="translate(-14.26 -45)"/><path class="cls-1" d="M176.85,83.79c27.88,18,33.87,55.77,15.21,79.87-17.24,22.26-51.35,27.45-76.06,9.51a55.13,55.13,0,0,0,60.85-89.38Z" transform="translate(-14.26 -45)"/><g id="Layer_2" data-name="Layer 2"><path class="cls-2" d="M173.09,123.2a36.84,36.84,0,0,1-8.83,24.27,32.42,32.42,0,0,1-6.62,5.52,26.27,26.27,0,0,1-4.41,2.21c-3.2,1.21-4.47.9-5.52,2.21-.82,1-.54,1.82-1.1,4.41a24.16,24.16,0,0,1-1.66,5,44.12,44.12,0,0,0,36.41-33.1c4.52-19-4.58-38-19.86-47.44-20.65-12.83-42.63-2.14-43.58-1.66-17.37,8.82-22.38,25.84-23.17,28.69-.3,1.09-6,25.12,11,41.93,10.8,10.65,24.16,11.91,28,12.14a22,22,0,0,0,6.53-10.55c-2.24.19-18.18,1.28-29-10.42C99.86,134,99.86,113.8,110.2,101.13c1.08-1.33,12.07-14.34,29.79-13.24,15.13.94,23.94,11.47,25.38,13.24A37.53,37.53,0,0,1,173.09,123.2Z" transform="translate(-14.26 -45)"/></g><path class="cls-2" d="M119.89,117.78c-.63,5.09.54,8.14,1.74,10s2.47,2.59,7.38,7.38c1.5,1.46,2.7,2.68,3.47,3.47a21.5,21.5,0,0,1,1.74,8.69c-.06,3.25-.88,4.68-.87,7.82a19.56,19.56,0,0,0,2.17,8.69,18.66,18.66,0,0,0,7.38-11.29,16.06,16.06,0,0,0-.65-8.9c-1.28-3.3-3.69-5.36-8.47-9.34s-6.2-4.23-8.69-6.95A23.68,23.68,0,0,1,119.89,117.78Z" transform="translate(-14.26 -45)"/><path class="cls-1" d="M157,117.57a14.94,14.94,0,0,1-3,8.69c-1.7,2.12-3.39,2.78-7.38,5.65a79.5,79.5,0,0,0-6.51,5.21l3.47,4.78a32,32,0,0,1,3.91-5.65c1.86-2.15,2.65-2.48,5.21-5.21,2.77-3,4.19-4.48,4.78-6.51A11.12,11.12,0,0,0,157,117.57Z" transform="translate(-14.26 -45)"/><ellipse class="cls-1" cx="124.52" cy="82.99" rx="3.91" ry="4.78"/><path class="cls-1" d="M130.53,118.87a11.54,11.54,0,0,1-7.82-2.61c-4.43-3.74-4-9.46-3.91-10,0,0,13,.87,12.59,11.29a10.61,10.61,0,0,0-10-8.25,10.13,10.13,0,0,0,1.74,5.21A10.78,10.78,0,0,0,130.53,118.87Z" transform="translate(-14.26 -45)"/><path class="cls-1" d="M137.91,115.4a12,12,0,0,1-3.47-7.82A12.35,12.35,0,0,1,138.78,98a15.1,15.1,0,0,1,2.61,3.47,11.46,11.46,0,0,1,1.74,7.38,10.33,10.33,0,0,1-3.47,6.08,11,11,0,0,0-.87-13,12.4,12.4,0,0,0-2.17,4.78A13,13,0,0,0,137.91,115.4Z" transform="translate(-14.26 -45)"/><path class="cls-1" d="M146.16,118a11.74,11.74,0,0,1,4.34-9.12,11.43,11.43,0,0,1,8.25-2.17,12.07,12.07,0,0,1-2.61,8.25,12.23,12.23,0,0,1-8.69,4.34,12.27,12.27,0,0,0,7.38-5.65,11.12,11.12,0,0,0,1.3-4.34,10.35,10.35,0,0,0-4.78,1.3A11.34,11.34,0,0,0,146.16,118Z" transform="translate(-14.26 -45)"/><text class="cls-3" transform="translate(224.74 92.97)"><tspan class="cls-4">M</tspan><tspan class="cls-5" x="61.84" y="0">e</tspan><tspan class="cls-6" x="92.22" y="0">r</tspan><tspan x="117.81" y="0">o </tspan><tspan class="cls-7" x="170.49" y="0">P</tspan><tspan class="cls-8" x="208.45" y="0">o</tspan><tspan x="244.41" y="0">li</tspan><tspan class="cls-9" x="281.65" y="0">c</tspan><tspan class="cls-10" x="313.03" y="0">y</tspan></text></svg>