<svg id="Layer_1" data-name="Layer 1" xmlns="http://www.w3.org/2000/svg" viewBox="0 0 571.94 140.53"><defs><style>.cls-1{fill:#2ed573}.cls-2{fill:#69c}</style></defs><path class="cls-1" d="M14.26 52.42c1.52 14.24 7.51 52.53 38 87.47a158.61 158.61 0 0068.46 45.64A73.21 73.21 0 01174 50.52c-5.56-2-38-13.29-72.26 3.8C72.19 69.05 60.72 95.15 58 101.86a95.65 95.65 0 01-22.82-17.11 96.22 96.22 0 01-20.92-32.33z" transform="translate(-14.26 -45)"/><circle class="cls-1" cx="36.13" cy="24.53" r="14.26"/><path class="cls-1" d="M98.88 85.7c25.5-34.64 74.06-38.14 100.79-13.31 22.78 21.16 26.79 60.18 5.7 89.38A66.56 66.56 0 0098.88 85.7z" transform="translate(-14.26 -45)"/><path class="cls-1" d="M176.85 83.79c27.88 18 33.87 55.77 15.21 79.87-17.24 22.26-51.35 27.45-76.06 9.51a55.13 55.13 0 0060.85-89.38z" transform="translate(-14.26 -45)"/><path class="cls-2" d="M173.09 123.2a36.84 36.84 0 01-8.83 24.27 32.42 32.42 0 01-6.62 5.52 26.27 26.27 0 01-4.41 2.21c-3.2 1.21-4.47.9-5.52 2.21-.82 1-.54 1.82-1.1 4.41a24.16 24.16 0 01-1.66 5 44.12 44.12 0 0036.41-33.1c4.52-19-4.58-38-19.86-47.44-20.65-12.83-42.63-2.14-43.58-1.66-17.37 8.82-22.38 25.84-23.17 28.69-.3 1.09-6 25.12 11 41.93 10.8 10.65 24.16 11.91 28 12.14a22 22 0 006.53-10.55c-2.24.19-18.18 1.28-29-10.42-11.42-12.41-11.42-32.61-1.08-45.28 1.08-1.33 12.07-14.34 29.79-13.24 15.13.94 23.94 11.47 25.38 13.24a37.53 37.53 0 017.72 22.07z" transform="translate(-14.26 -45)" id="Layer_2" data-name="Layer 2"/><path class="cls-2" d="M119.89 117.78c-.63 5.09.54 8.14 1.74 10s2.47 2.59 7.38 7.38c1.5 1.46 2.7 2.68 3.47 3.47a21.5 21.5 0 011.74 8.69c-.06 3.25-.88 4.68-.87 7.82a19.56 19.56 0 002.17 8.69 18.66 18.66 0 007.38-11.29 16.06 16.06 0 00-.65-8.9c-1.28-3.3-3.69-5.36-8.47-9.34s-6.2-4.23-8.69-6.95a23.68 23.68 0 01-5.2-9.57z" transform="translate(-14.26 -45)"/><path class="cls-1" d="M157 117.57a14.94 14.94 0 01-3 8.69c-1.7 2.12-3.39 2.78-7.38 5.65a79.5 79.5 0 00-6.51 5.21l3.47 4.78a32 32 0 013.91-5.65c1.86-2.15 2.65-2.48 5.21-5.21 2.77-3 4.19-4.48 4.78-6.51a11.12 11.12 0 00-.48-6.96z" transform="translate(-14.26 -45)"/><ellipse class="cls-1" cx="124.52" cy="82.99" rx="3.91" ry="4.78"/><path class="cls-1" d="M130.53 118.87a11.54 11.54 0 01-7.82-2.61c-4.43-3.74-4-9.46-3.91-10 0 0 13 .87 12.59 11.29a10.61 10.61 0 00-10-8.25 10.13 10.13 0 001.74 5.21 10.78 10.78 0 007.4 4.36zm7.38-3.47a12 12 0 01-3.47-7.82 12.35 12.35 0 014.34-9.58 15.1 15.1 0 012.61 3.47 11.46 11.46 0 011.74 7.38 10.33 10.33 0 01-3.47 6.08 11 11 0 00-.87-13 12.4 12.4 0 00-2.17 4.78 13 13 0 001.29 8.69zm8.25 2.6a11.74 11.74 0 014.34-9.12 11.43 11.43 0 018.25-2.17 12.07 12.07 0 01-2.61 8.25 12.23 12.23 0 01-8.69 4.34 12.27 12.27 0 007.38-5.65 11.12 11.12 0 001.3-4.34 10.35 10.35 0 00-4.78 1.3 11.34 11.34 0 00-5.19 7.39z" transform="translate(-14.26 -45)"/><text transform="translate(224.74 92.97)" font-size="71.49" font-family="MinionPro-Regular,Minion Pro" fill="#69c"><tspan letter-spacing="-.03em">M</tspan><tspan x="61.84" y="0" letter-spacing="0">e</tspan><tspan x="92.22" y="0" letter-spacing="-.01em">r</tspan><tspan x="117.81" y="0">o </tspan><tspan x="170.49" y="0" letter-spacing="-.03em">P</tspan><tspan x="208.45" y="0" letter-spacing="-.01em">o</tspan><tspan x="244.41" y="0">li</tspan><tspan x="281.65" y="0" letter-spacing=".02em">c</tspan><tspan x="313.03" y="0" letter-spacing="0">y</tspan></text></svg>