<svg width="296" height="113" xmlns="http://www.w3.org/2000/svg"><g fill="none" fill-rule="evenodd"><path d="M134.4 2.2c-1.2-1.3-2.7-2-4.6-2H26.2c-1.9 0-3.5.7-4.6 2-1.2 1.3-1.7 2.9-1.4 4.8l7.4 71.1c.4 4.2 3.9 9.4 7.4 11.6l36.6 21.6c1.7 1 4.1 1.6 6.5 1.6 2.5 0 4.8-.6 6.5-1.6l36.6-21.6c3.6-2 6.9-7.4 7.4-11.6L136 7c0-1.7-.4-3.5-1.6-4.8zm-30 78.8c-3 2-7 1.2-9-1.7L76.7 51.8 65.4 63.1v12.5c0 3.6-2.9 6.5-6.5 6.5s-6.5-2.9-6.5-6.5V21.4c0-3.6 2.9-6.5 6.5-6.5s6.5 2.9 6.5 6.5v23.3l27.9-27.9c2.5-2.5 6.7-2.5 9.2 0 2.5 2.5 2.5 6.7 0 9.2L86 42.4c0 .1.1.1.1.2l20 29.3c2 3 1.2 7-1.7 9.1z" fill="#5D2E8E" fill-rule="nonzero"/><path d="M296 26v45.3c0 6.1-5 11.1-11.1 11.1H133.8l.4-4.8h150.7c3.4 0 6.3-2.9 6.3-6.3V25.8c0-3.4-2.9-6.3-6.3-6.3H140.3l.4-4.8h144.2c6.1 0 11.1 5 11.1 11.3z" fill="#5D2E8E"/><path d="M152.9 36.3c0-.7-.4-1-1-1h-2v-4.1h4.6c2.2 0 3.2.6 3.2 2.9v16.1h2.2c.9 0 2-.3 2.6-1l5.8-8h5.4l-6.7 9.1c-1.2 1.4-1.9 1.9-1.9 1.9v.1s.9.3 1.6 1.9l3.6 6.7c.4.7.9 1 2.2 1h1.4v4h-3.5c-2.3 0-3-.4-4.1-2.3l-4.5-8.3c-.6-.9-1.6-1-2.5-1h-1.9V66h-4.8l.3-29.7zm25.9.1c0-.7-.4-1-1-1h-2v-4.1h4.6c2.2 0 3.2.9 3.2 3V44c0 1.2-.1 2-.1 2h.1c1-2.5 4.2-5.5 9.1-5.5 5.8 0 8.4 3.2 8.4 9.6v10.7c0 .7.4 1 1 1h2v4h-4.6c-2.2 0-3.2-.9-3.2-3.2V51.2c0-3.5-.7-6.2-4.6-6.2-3.8 0-6.8 2.6-7.8 6.1-.3 1-.4 2.2-.4 3.3V66h-4.8l.1-29.6z" fill="#5D2E8E"/><path d="M217 62.7c4.1 0 6.7-4.2 6.7-7.8V54h-1.2c-3.6 0-10 .1-10 4.8-.2 2.1 1.4 3.9 4.5 3.9zm5.5-12.1h1v-.3c0-4.3-1.6-5.9-5.5-5.9-1.2 0-4.1.3-4.1 1.9v1.4h-4.5v-2.5c0-4.1 6.2-4.6 8.5-4.6 8 0 10.1 4.2 10.1 9.7v10.6c0 .7.4 1.1 1 1.1h2v4h-4.5c-2.2 0-3-1-3-2.9 0-.9.1-1.4.1-1.4h-.1s-2 4.9-7.8 4.9c-4.2 0-8.4-2.6-8.4-7.5.2-7.9 11.1-8.5 15.2-8.5z" fill="#5D2E8E" fill-rule="nonzero"/><path d="M235.2 35.6H233v-4.1h4.6c2.2 0 3.2.9 3.2 3.2v26.2c0 .7.4 1 1 1h2v4h-4.6c-2.2 0-3.2-.9-3.2-3.2V36.6c.1 0 .2-1-.8-1zm14 9.4H246v-3.8h3.3v-6.9h4.6v6.9h5.9V45H254v11.3c0 4.9 3.4 5.7 5.1 5.7h1.2v3.9s-.6.1-1.6.1c-3.2 0-9.4-1-9.4-9.3V45h-.1zM268 31.4h3c.3 0 .6.3.6.6v3.7c0 .3-.3.6-.6.6h-3c-.3 0-.6-.3-.6-.6V32c0-.4.2-.6.6-.6zm-.8 14.9c0-.7-.4-1-1-1h-2v-4.1h4.6c2.2 0 3.2.9 3.2 3.2v16.5c0 .7.4 1 1 1h2v4h-4.6c-2.2 0-3.2-.9-3.2-3.2V46.3z" fill="#5D2E8E"/><g fill="#F9A61C"><path d="M12.502 18.785L.427 21.563l8.39 35.82 11.3-2.496z"/><path d="M.15 19.883l16.41-1.725 4.013 38.19-16.41 1.724z"/></g></g></svg>